<svg xmlns="http://www.w3.org/2000/svg" version="1.1" xmlns:xlink="http://www.w3.org/1999/xlink" xmlns:svgjs="http://svgjs.dev/svgjs" width="2000" height="1952" viewBox="0 0 2000 1952"><g transform="matrix(1,0,0,1,-1.4349359362394125,0.7902834008096988)"><svg viewBox="0 0 253 247" data-background-color="#ffffff" preserveAspectRatio="xMidYMid meet" height="1952" width="2000" xmlns="http://www.w3.org/2000/svg" xmlns:xlink="http://www.w3.org/1999/xlink"><g id="tight-bounds" transform="matrix(1,0,0,1,0.18151939593428779,-0.09999999999999432)"><svg viewBox="0 0 252.63695014662756 247.2" height="247.2" width="252.63695014662756"><g><svg viewBox="0 0 252.63695014662756 247.2" height="247.2" width="252.63695014662756"><g><svg viewBox="0 0 252.63695014662756 247.2" height="247.2" width="252.63695014662756"><g><svg viewBox="0 0 252.63695014662756 247.2" height="247.2" width="252.63695014662756"><g><svg viewBox="0 0 252.63695014662756 247.2" height="247.2" width="252.63695014662756"><g transform="matrix(1,0,0,1,0,0)"><svg width="252.63695014662756" viewBox="3.25 -33.70000076293945 34.849998474121094 34.10000228881836" height="247.2" data-palette-color="#ff0000"><path d="M11-13.8L11-6.15 24.2-6.15 24.2 0 3.25 0 3.25-33.7 24-33.7 24-27.55 11-27.55 11-19.9 22.6-19.9 22.6-13.8 11-13.8ZM30.5-0.9Q29.2-2.2 29.2-4.05 29.2-5.9 30.5-7.2 31.8-8.5 33.65-8.5 35.5-8.5 36.8-7.2 38.1-5.9 38.1-4.05 38.1-2.2 36.8-0.9 35.5 0.4 33.65 0.4 31.8 0.4 30.5-0.9Z" opacity="1" transform="matrix(1,0,0,1,0,0)" fill="#000000" class="undefined-text-0" data-fill-palette-color="primary" id="text-0"></path></svg></g></svg></g></svg></g></svg></g><g></g></svg></g><defs></defs></svg><rect width="252.63695014662756" height="247.2" fill="none" stroke="none" visibility="hidden"></rect></g></svg></g></svg>